<mxfile host="app.diagrams.net" modified="2021-08-29T10:58:01.975Z" agent="5.0 (X11)" etag="HnzkvR5-Jcj49r65KAgb" version="15.0.2" type="github">
  <diagram id="MN8bvahoAxwXIJLmzr7v" name="Page-1">
    <mxGraphModel dx="868" dy="440" grid="1" gridSize="10" guides="1" tooltips="1" connect="1" arrows="1" fold="1" page="1" pageScale="1" pageWidth="827" pageHeight="1169" math="0" shadow="0">
      <root>
        <mxCell id="0" />
        <mxCell id="1" parent="0" />
        <mxCell id="y8xsaFoaeD9KZ2KRa4Ev-2" value="displayRecipes(recipes[])" style="swimlane;fontStyle=0;childLayout=stackLayout;horizontal=1;startSize=26;horizontalStack=0;resizeParent=1;resizeParentMax=0;resizeLast=0;collapsible=1;marginBottom=0;" vertex="1" parent="1">
          <mxGeometry x="40" y="170" width="200" height="80" as="geometry" />
        </mxCell>
        <mxCell id="y8xsaFoaeD9KZ2KRa4Ev-4" value="Fonction qui affiche &#xa;les recettes en paramètre" style="text;strokeColor=none;fillColor=none;align=left;verticalAlign=top;spacingLeft=4;spacingRight=4;overflow=hidden;rotatable=0;points=[[0,0.5],[1,0.5]];portConstraint=eastwest;" vertex="1" parent="y8xsaFoaeD9KZ2KRa4Ev-2">
          <mxGeometry y="26" width="200" height="54" as="geometry" />
        </mxCell>
        <mxCell id="y8xsaFoaeD9KZ2KRa4Ev-6" value="recipesToDisplay[]" style="swimlane;fontStyle=0;childLayout=stackLayout;horizontal=1;startSize=26;horizontalStack=0;resizeParent=1;resizeParentMax=0;resizeLast=0;collapsible=1;marginBottom=0;" vertex="1" parent="1">
          <mxGeometry x="344" y="170" width="140" height="80" as="geometry" />
        </mxCell>
        <mxCell id="y8xsaFoaeD9KZ2KRa4Ev-7" value="Tableau contenant des &#xa;objets &quot;recette&quot;" style="text;strokeColor=none;fillColor=none;align=left;verticalAlign=top;spacingLeft=4;spacingRight=4;overflow=hidden;rotatable=0;points=[[0,0.5],[1,0.5]];portConstraint=eastwest;" vertex="1" parent="y8xsaFoaeD9KZ2KRa4Ev-6">
          <mxGeometry y="26" width="140" height="54" as="geometry" />
        </mxCell>
        <mxCell id="y8xsaFoaeD9KZ2KRa4Ev-10" value="" style="shape=flexArrow;endArrow=classic;html=1;entryX=1;entryY=0.796;entryDx=0;entryDy=0;entryPerimeter=0;" edge="1" parent="1" target="y8xsaFoaeD9KZ2KRa4Ev-4">
          <mxGeometry width="50" height="50" relative="1" as="geometry">
            <mxPoint x="342" y="239" as="sourcePoint" />
            <mxPoint x="440" y="230" as="targetPoint" />
          </mxGeometry>
        </mxCell>
        <mxCell id="y8xsaFoaeD9KZ2KRa4Ev-11" value="filterRecipes()" style="rounded=0;whiteSpace=wrap;html=1;" vertex="1" parent="1">
          <mxGeometry x="354" y="40" width="120" height="60" as="geometry" />
        </mxCell>
        <mxCell id="y8xsaFoaeD9KZ2KRa4Ev-12" value="mainSearch()" style="rounded=0;whiteSpace=wrap;html=1;" vertex="1" parent="1">
          <mxGeometry x="354" y="330" width="120" height="60" as="geometry" />
        </mxCell>
        <mxCell id="y8xsaFoaeD9KZ2KRa4Ev-13" value="" style="endArrow=classic;html=1;exitX=0.5;exitY=1;exitDx=0;exitDy=0;entryX=0.5;entryY=0;entryDx=0;entryDy=0;" edge="1" parent="1" source="y8xsaFoaeD9KZ2KRa4Ev-11" target="y8xsaFoaeD9KZ2KRa4Ev-6">
          <mxGeometry width="50" height="50" relative="1" as="geometry">
            <mxPoint x="390" y="280" as="sourcePoint" />
            <mxPoint x="440" y="230" as="targetPoint" />
          </mxGeometry>
        </mxCell>
        <mxCell id="y8xsaFoaeD9KZ2KRa4Ev-14" value="" style="endArrow=classic;html=1;exitX=0.5;exitY=0;exitDx=0;exitDy=0;entryX=0.479;entryY=1.074;entryDx=0;entryDy=0;entryPerimeter=0;" edge="1" parent="1" source="y8xsaFoaeD9KZ2KRa4Ev-12" target="y8xsaFoaeD9KZ2KRa4Ev-7">
          <mxGeometry width="50" height="50" relative="1" as="geometry">
            <mxPoint x="390" y="280" as="sourcePoint" />
            <mxPoint x="440" y="230" as="targetPoint" />
          </mxGeometry>
        </mxCell>
        <mxCell id="y8xsaFoaeD9KZ2KRa4Ev-16" value="modifie" style="text;html=1;strokeColor=none;fillColor=none;align=center;verticalAlign=middle;whiteSpace=wrap;rounded=0;" vertex="1" parent="1">
          <mxGeometry x="420" y="130" width="40" height="20" as="geometry" />
        </mxCell>
        <mxCell id="y8xsaFoaeD9KZ2KRa4Ev-17" value="modifie" style="text;html=1;strokeColor=none;fillColor=none;align=center;verticalAlign=middle;whiteSpace=wrap;rounded=0;" vertex="1" parent="1">
          <mxGeometry x="434" y="280" width="40" height="20" as="geometry" />
        </mxCell>
        <mxCell id="y8xsaFoaeD9KZ2KRa4Ev-18" value="" style="shape=flexArrow;endArrow=classic;html=1;exitX=1;exitY=0.25;exitDx=0;exitDy=0;" edge="1" parent="1" source="y8xsaFoaeD9KZ2KRa4Ev-2">
          <mxGeometry width="50" height="50" relative="1" as="geometry">
            <mxPoint x="390" y="260" as="sourcePoint" />
            <mxPoint x="340" y="190" as="targetPoint" />
          </mxGeometry>
        </mxCell>
        <mxCell id="y8xsaFoaeD9KZ2KRa4Ev-19" value="&lt;div&gt;récupère&lt;/div&gt;" style="text;html=1;strokeColor=none;fillColor=none;align=center;verticalAlign=middle;whiteSpace=wrap;rounded=0;" vertex="1" parent="1">
          <mxGeometry x="260" y="160" width="40" height="20" as="geometry" />
        </mxCell>
        <mxCell id="y8xsaFoaeD9KZ2KRa4Ev-20" value="Passe en paramètre" style="text;html=1;strokeColor=none;fillColor=none;align=center;verticalAlign=middle;whiteSpace=wrap;rounded=0;" vertex="1" parent="1">
          <mxGeometry x="254" y="250" width="90" height="30" as="geometry" />
        </mxCell>
      </root>
    </mxGraphModel>
  </diagram>
</mxfile>
